<svg width="34" height="19" viewBox="0 0 34 19" fill="none" xmlns="http://www.w3.org/2000/svg">
<path d="M27.7133 6.50506L27.5403 6.57883L27.4588 6.74833L27.4166 6.83605L27.3771 6.7521L27.2956 6.57886L27.1192 6.50438L27.1088 6.5L27.1192 6.49562L27.2956 6.42114L27.3771 6.2479L27.4166 6.16395L27.4588 6.25167L27.5403 6.42117L27.7133 6.49494L27.7252 6.5L27.7133 6.50506Z" fill="black" stroke="#338DE8"/>
<path d="M31.6705 9.03034L31.8896 8.81553L31.7973 8.52293C31.6686 8.11496 32.0031 7.5 32.6364 7.5C33.1209 7.5 33.5 7.88668 33.5 8.33333C33.5 8.6312 33.3539 8.86095 33.1372 9.00787C32.9094 9.16243 32.6361 9.20255 32.433 9.14129L32.1507 9.05616L31.9396 9.26201L29.5123 11.6287L29.2905 11.845L29.3854 12.1399C29.5175 12.5502 29.1813 13.1667 28.5455 13.1667C27.9051 13.1667 27.5734 12.5463 27.7051 12.1412L27.801 11.8461L27.5791 11.6292L25.8405 9.92916L25.6311 9.72447L25.3502 9.80688C25.2375 9.83993 25.0352 9.83993 24.9226 9.80688L24.6413 9.72437L24.4319 9.92955L21.3296 12.9695L21.1104 13.1844L21.2027 13.4771C21.3314 13.885 20.9969 14.5 20.3636 14.5C19.8791 14.5 19.5 14.1133 19.5 13.6667C19.5 13.3688 19.6461 13.1391 19.8628 12.9921C20.0906 12.8376 20.3639 12.7975 20.567 12.8587L20.8494 12.9439L21.0605 12.7379L24.1696 9.70455L24.3913 9.48826L24.2964 9.19343C24.1643 8.78314 24.5005 8.16667 25.1364 8.16667C25.7767 8.16667 26.1084 8.78707 25.9768 9.19213L25.8809 9.48724L26.1027 9.70417L27.8413 11.4042L28.0507 11.6089L28.3316 11.5265C28.4443 11.4934 28.6466 11.4934 28.7593 11.5265L29.0407 11.609L29.2501 11.4037L31.6705 9.03034Z" fill="#338DE8" stroke="#338DE8"/>
<path d="M11.625 1L18 4.77778V11.3889M15.875 14.2222L9.5 18L3.125 14.2222M1 11.3889V4.77778L7.375 1" stroke="#338DE8" stroke-width="2" stroke-linecap="round" stroke-linejoin="round"/>
<path d="M5.996 13V4.6H10.1C11.156 4.6 11.948 4.8 12.476 5.2C13.012 5.6 13.28 6.128 13.28 6.784C13.28 7.224 13.172 7.608 12.956 7.936C12.74 8.256 12.444 8.504 12.068 8.68C11.692 8.856 11.26 8.944 10.772 8.944L11 8.452C11.528 8.452 11.996 8.54 12.404 8.716C12.812 8.884 13.128 9.136 13.352 9.472C13.584 9.808 13.7 10.22 13.7 10.708C13.7 11.428 13.416 11.992 12.848 12.4C12.28 12.8 11.444 13 10.34 13H5.996ZM7.928 11.536H10.196C10.7 11.536 11.08 11.456 11.336 11.296C11.6 11.128 11.732 10.864 11.732 10.504C11.732 10.152 11.6 9.892 11.336 9.724C11.08 9.548 10.7 9.46 10.196 9.46H7.784V8.044H9.86C10.332 8.044 10.692 7.964 10.94 7.804C11.196 7.636 11.324 7.384 11.324 7.048C11.324 6.72 11.196 6.476 10.94 6.316C10.692 6.148 10.332 6.064 9.86 6.064H7.928V11.536Z" fill="#338DE8"/>
</svg>
