<svg width="220" height="120" viewBox="0 0 220 120" fill="none" xmlns="http://www.w3.org/2000/svg">
<path d="M75.125 39L73.0938 38.8125C71.6771 38.8125 70.7292 39.375 70.25 40.5C69.8125 41.5208 69.5938 43.3854 69.5938 46.0938V69.7188C69.5938 74.8229 67.6458 78.8542 63.75 81.8125C60.2708 84.4167 56.0938 85.7188 51.2188 85.7188C48.1354 85.7188 44.875 85 41.4375 83.5625C40.2083 83.0625 39.0208 82.4375 37.875 81.6875V69.9688C37.875 67.4271 38.3854 66.1562 39.4062 66.1562C40.0938 66.1562 40.5938 66.7812 40.9062 68.0312C42.7188 75.1562 45.5104 79.3958 49.2812 80.75C50.4062 81.1667 51.5833 81.375 52.8125 81.375C54.0417 81.375 55.2292 81.1458 56.375 80.6875C57.5417 80.2083 58.5521 79.4583 59.4062 78.4375C61.2812 76.2292 62.2188 72.9583 62.2188 68.625V46.0938C62.2188 43.4062 62.0104 41.6562 61.5938 40.8438C61.1979 40.0312 60.75 39.4896 60.25 39.2188C59.7708 38.9479 59.1562 38.8125 58.4062 38.8125L56.0625 39C55.6875 39 55.3958 38.8646 55.1875 38.5938C54.9792 38.3021 54.875 38.0312 54.875 37.7812C54.875 37.5312 54.9167 37.3021 55 37.0938C55.1042 36.8646 55.2708 36.6458 55.5 36.4375C56 35.9792 56.7083 35.75 57.625 35.75C58.5625 35.75 59.375 35.7708 60.0625 35.8125L64 36.125C64.625 36.1875 65.2604 36.2188 65.9062 36.2188C66.5729 36.2188 67.1771 36.1875 67.7188 36.125L69.375 36C71.0625 35.8333 72.2917 35.75 73.0625 35.75C73.8542 35.75 74.4375 35.8229 74.8125 35.9688C75.1875 36.0938 75.4896 36.25 75.7188 36.4375C76.1354 36.8125 76.3438 37.1875 76.3438 37.5625C76.3438 38.5208 75.9375 39 75.125 39Z" fill="#0081AB"/>
<path d="M153.875 83L146.188 83.4375C144.688 83.4375 143.75 83 143.375 82.125C143.292 81.8958 143.25 81.6667 143.25 81.4375C143.25 81.1875 143.354 80.9167 143.562 80.625C143.771 80.3333 144.073 80.1875 144.469 80.1875L146.469 80.375C147.906 80.375 148.865 79.8125 149.344 78.6875C149.781 77.6667 150 75.8125 150 73.125V44.5C150 41.7292 149.802 39.9167 149.406 39.0625C149.031 38.2083 148.573 37.625 148.031 37.3125C147.51 37 146.833 36.8438 146 36.8438L144.469 37.0312C144.073 37.0312 143.771 36.8958 143.562 36.625C143.354 36.3542 143.25 36.0833 143.25 35.8125C143.25 35.5417 143.292 35.3021 143.375 35.0938C143.479 34.8646 143.646 34.6562 143.875 34.4688C144.396 34.0104 145.115 33.7812 146.031 33.7812C146.969 33.7812 147.719 33.8021 148.281 33.8438C148.844 33.8854 149.375 33.9375 149.875 34C151.083 34.1458 152.333 34.2188 153.625 34.2188C154.938 34.2188 156.156 34.1667 157.281 34.0625C158.427 33.9583 159.531 33.8542 160.594 33.75L163.688 33.4062C164.667 33.3021 165.885 33.25 167.344 33.25C168.802 33.25 170.312 33.3958 171.875 33.6875C173.458 33.9792 174.823 34.3854 175.969 34.9062C177.135 35.4062 178.104 36.0104 178.875 36.7188C179.646 37.4271 180.271 38.1875 180.75 39C181.604 40.5 182.031 42.3646 182.031 44.5938C182.031 46.8229 181.292 48.9375 179.812 50.9375C178.333 52.9167 176.229 54.5 173.5 55.6875C177.375 56.6042 180.469 58.1875 182.781 60.4375C185.135 62.7292 186.312 65.3542 186.312 68.3125C186.312 72.75 184.698 76.375 181.469 79.1875C178.01 82.2292 173.25 83.75 167.188 83.75C166.208 83.75 164.667 83.6667 162.562 83.5C158.396 83.1667 155.5 83 153.875 83ZM157.281 54.0938C159.385 54.4896 161.438 54.6875 163.438 54.6875C165.438 54.6875 167.042 54.5104 168.25 54.1562C169.479 53.8021 170.542 53.25 171.438 52.5C173.333 50.9167 174.281 48.5625 174.281 45.4375C174.281 40.7708 171.156 38.4375 164.906 38.4375C162.156 38.4375 160.344 38.5938 159.469 38.9062C158.615 39.1979 158.031 39.5417 157.719 39.9375C157.427 40.3333 157.281 40.8438 157.281 41.4688V54.0938ZM169.531 59.25C167.656 58.8542 165.635 58.6562 163.469 58.6562C161.302 58.6562 159.24 58.8125 157.281 59.125V74.7188C157.281 76.1979 158.042 77.2917 159.562 78C161.104 78.6875 163.115 79.0312 165.594 79.0312C168.073 79.0312 170.01 78.875 171.406 78.5625C172.823 78.2292 174.042 77.6667 175.062 76.875C177.271 75.1875 178.375 72.4375 178.375 68.625C178.375 63.5833 175.427 60.4583 169.531 59.25Z" fill="#0081AB"/>
<path d="M135.456 59.3399L135.495 61.3538C135.584 66.0741 134.118 70.6973 131.316 74.5337C128.515 78.3701 124.527 81.2142 119.949 82.6419C115.37 84.0695 110.446 84.0042 105.91 82.4558C101.375 80.9073 97.4706 77.9585 94.7804 74.0493C92.0903 70.1401 90.7581 65.4799 90.9827 60.7637C91.2073 56.0475 92.9765 51.528 96.0266 47.8792C99.0766 44.2305 103.244 41.648 107.907 40.5169C112.571 39.3858 117.48 39.7667 121.903 41.6028M135.155 43.8422L113.314 66.1854L106.507 59.7481" stroke="#0081AB" stroke-width="5" stroke-linecap="round" stroke-linejoin="round"/>
<line x1="87.4995" y1="35.949" x2="88.4995" y2="84.949" stroke="#0081AB" stroke-width="5"/>
</svg>
